<mxfile host="app.diagrams.net" modified="2023-10-02T15:30:59.445Z" agent="Mozilla/5.0 (X11; Linux x86_64; rv:109.0) Gecko/20100101 Firefox/114.0" version="22.0.0" etag="v4yasFHVQBnRgHw-9g7d" type="github">
  <diagram name="PÃ¡gina-1" id="ZmS92akMaIv9AW3tyPIW">
    <mxGraphModel>
      <root>
        <mxCell id="0" />
        <mxCell id="1" parent="0" />
      </root>
    </mxGraphModel>
  </diagram>
</mxfile>
